# xmcd CD database file
#
# Track frame offsets:
#	150
#	15152
#	33302
#	51187
#	63670
#	79882
#	95060
#	111135
#	126832
#	141775
#	156582
#	172920
#
# Disc length: 2507 seconds
#
# Revision: 3
# Processed by: cddbd v1.5.2PL0 Copyright (c) Steve Scherf et al.
# Submitted via: CDex 1.51
#
DISCID=9e09c90c
DTITLE=Eliana De Lima - Eliana De Lima
DYEAR=1994
DGENRE=Samba
TTITLE0=Saudade Danada
TTITLE1=Tortura de Amor
TTITLE2=Volta Pra Ela (part. Luiz Carlos)
TTITLE3=Alô, Como Vai Você
TTITLE4=Amando Outra Vez
TTITLE5=Eu Fui Fundo Na Paixão
TTITLE6=Cadê Você
TTITLE7=Tô Indo Embora
TTITLE8=Brincar de Amor
TTITLE9=Volte Amanhã
TTITLE10=Preciso Te Encontrar
TTITLE11=Chega Mais, Meu Amor
EXTD=YEAR: 1994
EXTT0=
EXTT1=
EXTT2=
EXTT3=
EXTT4=
EXTT5=
EXTT6=
EXTT7=
EXTT8=
EXTT9=
EXTT10=
EXTT11=
PLAYORDER=
